<svg width="222" height="247" viewBox="0 0 221.75 246.86" version="1.1"
   xmlns="http://www.w3.org/2000/svg">
   <g fill="#ffffff">
      <path
         d="m 70.22 30.32 c -0.08 0 -0.16 0 -0.25 0.01 -0.67 0.02 -1.51 0.52 -1.76 1.14 -1.65 4.13 -5.89 18.67 -6.44 21.05 -4.13 1.1 -9.95 3.71 -13.67 7 -1.3 1.15 -2.93 3.96 -1.9 5.18 1.09 1.29 3.31 2.16 5.03 1.86 0.94 -0.16 1.98 -1.68 1.46 -2.46 -0.46 -0.7 -1.51 -1 -2.51 -1.22 -0.38 -0.09 -0.44 -0.35 -0.13 -0.59 3.7 -2.86 5.97 -3.95 10.46 -5.68 -1.35 4.11 -2.77 8.53 -3.92 12.7 -3.23 0 -11.64 -0.68 -13.87 1.61 -0.53 0.54 -0.78 1.29 -0.75 2.03 0.15 4.55 14.7 19.75 18.52 23.32 0.63 0.58 1.22 0.96 2.07 1.1 0.39 -0.12 0.95 -0.2 1.04 -0.63 1.61 -7.08 2.17 -17.42 3.39 -24.38 1.77 -0.14 3.75 -0.34 5.51 -0.35 -0.45 2.99 -0.99 5.97 -1.63 8.92 -0.39 2.1 -1.46 6.97 -1.98 9.97 -0.16 0.96 0.53 1.81 1.51 1.86 0.12 0 0.24 0.01 0.35 0.01 0.81 0.04 1.59 -0.65 1.74 -1.45 0.7 -3.81 1.43 -7.62 2.18 -11.42 3.61 -0.29 7.7 -0.49 10.69 1.94 2.38 1.94 1.92 4.95 0 7.03 -0.58 0.63 -1.18 1.13 -1.79 1.54 -1.15 0.76 -1.52 1.92 -0.6 2.96 0.42 0.48 1.38 0.53 2.09 0.04 5.64 -3.85 9.7 -11.89 -1.03 -16.32 6.7 -3 14.67 -6.57 17.69 -13.79 2.42 -5.78 -2.52 -11.41 -7.75 -13.13 -7.51 -2.47 -16.6 -0.97 -24.31 0.04 0.36 -5.78 1.02 -10.22 1.69 -15.9 0.08 -0.67 0.2 -1.75 0.28 -2.41 0.11 -0.89 -0.53 -1.59 -1.43 -1.56 z m 12.68 22.33 c 7.82 -0.12 19.76 1.11 14.15 11.58 -2.84 5.29 -15.3 10.54 -21.36 11.81 0.13 -1.65 -0.07 -3.77 1.52 -4.47 1.76 -0.11 4.67 -0.35 6.82 -0.69 0.83 -0.13 1.51 -0.95 1.51 -1.79 0 -0.92 -0.82 -1.68 -1.83 -1.65 -2.14 0.06 -4.56 0.23 -6.51 0.32 0.33 -1.67 0.64 -3.39 0.95 -5.09 0.18 -1.03 -0.51 -1.94 -1.55 -1.95 -0.03 0 -0.05 0 -0.08 0 -0.99 -0.01 -1.91 0.81 -2.1 1.78 -0.37 1.88 -0.92 4.15 -1.25 5.69 -1.94 0.3 -3.46 0.29 -5.41 0.3 0.69 -4.57 0.77 -9.8 1.59 -14.29 3.23 -0.93 5.73 -1.08 9.06 -1.36 1.1 -0.07 2.69 -0.17 4.5 -0.2 z m -17.92 3.04 c 0.07 2.72 -1.21 11.72 -1.54 12.99 -0.54 0.41 -1.67 0.32 -2.4 0.33 -0.36 -0.38 2.45 -10.52 3.49 -13.37 0.15 -0.4 0.44 -0.38 0.45 0.04 z m -3.77 17.07 c 0.64 0 1.29 0.01 1.86 0 -0.67 6.18 -1.41 12.35 -2.21 18.5 -2.7 -2.57 -5.18 -5.33 -7.69 -8.08 -2.67 -2.91 -5.22 -6.08 -7.33 -9.44 -0.24 -0.37 -0.06 -0.7 0.38 -0.71 3.02 -0.1 6.05 -0.11 9.07 -0.03 l -0.34 1 c -0.38 1.09 0.25 2.04 1.4 2.04 0.16 0 0.31 0 0.48 0 0.76 -0.01 1.59 -0.63 1.85 -1.35 l 0.69 -1.9 c 0.56 -0.02 1.2 -0.03 1.84 -0.03 z"
         transform="matrix(3.67 0 0 3.67 -154 -111)" />
      <path
         d="m 128.98 93.01 c -0.94 -0.02 -1.9 0.13 -1.82 0.49 -3.73 1.46 -5.56 5.67 -4.1 9.39 1.47 3.73 5.69 5.55 9.41 4.07 3.7 -1.48 5.51 -5.67 4.04 -9.38 -1.1 -2.78 -3.73 -4.5 -6.54 -4.57 z" />
      <path
         d="m 45.31 172.31 c 3.64 -1.63 7.92 -0.14 9.75 3.41 1.83 3.55 0.57 7.91 -2.87 9.93 -2.4 1.41 -5.38 1.38 -7.75 -0.08 -2.37 -1.46 -3.74 -4.11 -3.56 -6.89 0.18 -2.78 1.89 -5.23 4.43 -6.37 z" />
      <path
         d="m 102.26 233.33 c 2.13 0.04 4.21 1.08 5.49 2.97 2.05 3.03 1.32 7.14 -1.64 9.28 -2 1.44 -4.62 1.68 -6.85 0.63 -2.23 -1.05 -3.71 -3.24 -3.86 -5.7 -0.15 -2.46 1.05 -4.81 3.13 -6.13 1.16 -0.73 2.46 -1.08 3.73 -1.05 z" />
   </g>
</svg>